<mxfile host="app.diagrams.net" modified="2022-07-09T06:00:12.304Z" agent="5.0 (Windows NT 10.0; Win64; x64) AppleWebKit/537.36 (KHTML, like Gecko) Chrome/103.0.0.0 Safari/537.36" etag="QMg_RN6mv_BqOg1GKxXy" version="20.0.4" type="github">
  <diagram id="FEix33OhXk8ylHzBTpZi" name="Page-1">
    <mxGraphModel dx="1038" dy="547" grid="1" gridSize="10" guides="1" tooltips="1" connect="1" arrows="1" fold="1" page="1" pageScale="1" pageWidth="850" pageHeight="1100" math="0" shadow="0">
      <root>
        <mxCell id="0" />
        <mxCell id="1" parent="0" />
        <mxCell id="ZMTIGG7sLfhPKObVs-Og-2" value="" style="rounded=0;whiteSpace=wrap;html=1;" vertex="1" parent="1">
          <mxGeometry x="180" y="50" width="220" height="950" as="geometry" />
        </mxCell>
        <mxCell id="ZMTIGG7sLfhPKObVs-Og-3" value="Victim" style="shape=umlActor;verticalLabelPosition=bottom;verticalAlign=top;html=1;outlineConnect=0;" vertex="1" parent="1">
          <mxGeometry x="20" y="150" width="30" height="60" as="geometry" />
        </mxCell>
        <mxCell id="ZMTIGG7sLfhPKObVs-Og-4" value="Login" style="ellipse;whiteSpace=wrap;html=1;" vertex="1" parent="1">
          <mxGeometry x="230" y="70" width="110" height="50" as="geometry" />
        </mxCell>
        <mxCell id="ZMTIGG7sLfhPKObVs-Og-5" value="Registration" style="ellipse;whiteSpace=wrap;html=1;" vertex="1" parent="1">
          <mxGeometry x="230" y="150" width="110" height="50" as="geometry" />
        </mxCell>
        <mxCell id="ZMTIGG7sLfhPKObVs-Og-6" value="Ask for help" style="ellipse;whiteSpace=wrap;html=1;" vertex="1" parent="1">
          <mxGeometry x="230" y="230" width="110" height="50" as="geometry" />
        </mxCell>
        <mxCell id="ZMTIGG7sLfhPKObVs-Og-8" value="" style="endArrow=classic;html=1;rounded=0;entryX=0;entryY=0.5;entryDx=0;entryDy=0;" edge="1" parent="1" target="ZMTIGG7sLfhPKObVs-Og-4">
          <mxGeometry width="50" height="50" relative="1" as="geometry">
            <mxPoint x="60" y="180" as="sourcePoint" />
            <mxPoint x="110" y="130" as="targetPoint" />
          </mxGeometry>
        </mxCell>
        <mxCell id="ZMTIGG7sLfhPKObVs-Og-9" value="" style="endArrow=classic;html=1;rounded=0;entryX=0;entryY=0.5;entryDx=0;entryDy=0;" edge="1" parent="1" target="ZMTIGG7sLfhPKObVs-Og-5">
          <mxGeometry width="50" height="50" relative="1" as="geometry">
            <mxPoint x="60" y="190" as="sourcePoint" />
            <mxPoint x="240" y="105" as="targetPoint" />
          </mxGeometry>
        </mxCell>
        <mxCell id="ZMTIGG7sLfhPKObVs-Og-10" value="" style="endArrow=classic;html=1;rounded=0;entryX=0;entryY=0.5;entryDx=0;entryDy=0;" edge="1" parent="1" target="ZMTIGG7sLfhPKObVs-Og-6">
          <mxGeometry width="50" height="50" relative="1" as="geometry">
            <mxPoint x="60" y="200" as="sourcePoint" />
            <mxPoint x="240" y="185" as="targetPoint" />
          </mxGeometry>
        </mxCell>
        <mxCell id="ZMTIGG7sLfhPKObVs-Og-11" value="Request Resources" style="ellipse;whiteSpace=wrap;html=1;" vertex="1" parent="1">
          <mxGeometry x="230" y="310" width="110" height="50" as="geometry" />
        </mxCell>
        <mxCell id="ZMTIGG7sLfhPKObVs-Og-12" value="" style="endArrow=classic;html=1;rounded=0;entryX=0;entryY=0.5;entryDx=0;entryDy=0;" edge="1" parent="1" target="ZMTIGG7sLfhPKObVs-Og-11">
          <mxGeometry width="50" height="50" relative="1" as="geometry">
            <mxPoint x="60" y="210" as="sourcePoint" />
            <mxPoint x="230" y="265" as="targetPoint" />
          </mxGeometry>
        </mxCell>
        <mxCell id="ZMTIGG7sLfhPKObVs-Og-13" value="Suporting Agency" style="shape=umlActor;verticalLabelPosition=bottom;verticalAlign=top;html=1;outlineConnect=0;" vertex="1" parent="1">
          <mxGeometry x="40" y="395" width="30" height="60" as="geometry" />
        </mxCell>
        <mxCell id="ZMTIGG7sLfhPKObVs-Og-15" value="Individual" style="shape=umlActor;verticalLabelPosition=bottom;verticalAlign=top;html=1;outlineConnect=0;" vertex="1" parent="1">
          <mxGeometry x="40" y="500" width="30" height="60" as="geometry" />
        </mxCell>
        <mxCell id="ZMTIGG7sLfhPKObVs-Og-16" value="Donation" style="ellipse;whiteSpace=wrap;html=1;" vertex="1" parent="1">
          <mxGeometry x="220" y="430" width="120" height="80" as="geometry" />
        </mxCell>
        <mxCell id="ZMTIGG7sLfhPKObVs-Og-17" value="" style="endArrow=classic;html=1;rounded=0;entryX=0.043;entryY=0.683;entryDx=0;entryDy=0;entryPerimeter=0;" edge="1" parent="1" target="ZMTIGG7sLfhPKObVs-Og-16">
          <mxGeometry width="50" height="50" relative="1" as="geometry">
            <mxPoint x="80" y="540" as="sourcePoint" />
            <mxPoint x="130" y="490" as="targetPoint" />
          </mxGeometry>
        </mxCell>
        <mxCell id="ZMTIGG7sLfhPKObVs-Og-18" value="" style="endArrow=classic;html=1;rounded=0;" edge="1" parent="1" target="ZMTIGG7sLfhPKObVs-Og-16">
          <mxGeometry width="50" height="50" relative="1" as="geometry">
            <mxPoint x="70" y="430" as="sourcePoint" />
            <mxPoint x="215.16000000000008" y="374.6400000000001" as="targetPoint" />
          </mxGeometry>
        </mxCell>
        <mxCell id="ZMTIGG7sLfhPKObVs-Og-19" value="Rescue Team" style="shape=umlActor;verticalLabelPosition=bottom;verticalAlign=top;html=1;outlineConnect=0;" vertex="1" parent="1">
          <mxGeometry x="40" y="620" width="30" height="60" as="geometry" />
        </mxCell>
        <mxCell id="ZMTIGG7sLfhPKObVs-Og-20" value="Rescue Victims" style="ellipse;whiteSpace=wrap;html=1;" vertex="1" parent="1">
          <mxGeometry x="240" y="620" width="90" height="60" as="geometry" />
        </mxCell>
        <mxCell id="ZMTIGG7sLfhPKObVs-Og-21" value="Relief Provider Team" style="shape=umlActor;verticalLabelPosition=bottom;verticalAlign=top;html=1;outlineConnect=0;" vertex="1" parent="1">
          <mxGeometry x="40" y="750" width="30" height="60" as="geometry" />
        </mxCell>
        <mxCell id="ZMTIGG7sLfhPKObVs-Og-22" value="Provide Relief" style="ellipse;whiteSpace=wrap;html=1;" vertex="1" parent="1">
          <mxGeometry x="240" y="730" width="90" height="60" as="geometry" />
        </mxCell>
        <mxCell id="ZMTIGG7sLfhPKObVs-Og-23" value="Manage Resources" style="ellipse;whiteSpace=wrap;html=1;" vertex="1" parent="1">
          <mxGeometry x="240" y="830" width="90" height="60" as="geometry" />
        </mxCell>
        <mxCell id="ZMTIGG7sLfhPKObVs-Og-24" value="" style="endArrow=classic;html=1;rounded=0;entryX=0;entryY=0.5;entryDx=0;entryDy=0;" edge="1" parent="1" target="ZMTIGG7sLfhPKObVs-Og-22">
          <mxGeometry width="50" height="50" relative="1" as="geometry">
            <mxPoint x="80" y="785" as="sourcePoint" />
            <mxPoint x="130" y="735" as="targetPoint" />
          </mxGeometry>
        </mxCell>
        <mxCell id="ZMTIGG7sLfhPKObVs-Og-25" value="" style="endArrow=classic;html=1;rounded=0;entryX=0;entryY=0.5;entryDx=0;entryDy=0;" edge="1" parent="1" target="ZMTIGG7sLfhPKObVs-Og-23">
          <mxGeometry width="50" height="50" relative="1" as="geometry">
            <mxPoint x="80" y="795" as="sourcePoint" />
            <mxPoint x="250" y="770" as="targetPoint" />
          </mxGeometry>
        </mxCell>
        <mxCell id="ZMTIGG7sLfhPKObVs-Og-26" value="" style="endArrow=classic;html=1;rounded=0;entryX=0;entryY=0.5;entryDx=0;entryDy=0;" edge="1" parent="1" target="ZMTIGG7sLfhPKObVs-Og-20">
          <mxGeometry width="50" height="50" relative="1" as="geometry">
            <mxPoint x="70" y="650" as="sourcePoint" />
            <mxPoint x="230" y="630" as="targetPoint" />
          </mxGeometry>
        </mxCell>
        <mxCell id="ZMTIGG7sLfhPKObVs-Og-30" style="edgeStyle=orthogonalEdgeStyle;rounded=0;orthogonalLoop=1;jettySize=auto;html=1;exitX=0.5;exitY=0.5;exitDx=0;exitDy=0;exitPerimeter=0;entryX=1;entryY=0.5;entryDx=0;entryDy=0;" edge="1" parent="1" source="ZMTIGG7sLfhPKObVs-Og-27" target="ZMTIGG7sLfhPKObVs-Og-4">
          <mxGeometry relative="1" as="geometry" />
        </mxCell>
        <mxCell id="ZMTIGG7sLfhPKObVs-Og-32" style="edgeStyle=orthogonalEdgeStyle;rounded=0;orthogonalLoop=1;jettySize=auto;html=1;exitX=0.5;exitY=0.5;exitDx=0;exitDy=0;exitPerimeter=0;entryX=1;entryY=0.5;entryDx=0;entryDy=0;" edge="1" parent="1" source="ZMTIGG7sLfhPKObVs-Og-27" target="ZMTIGG7sLfhPKObVs-Og-5">
          <mxGeometry relative="1" as="geometry" />
        </mxCell>
        <mxCell id="ZMTIGG7sLfhPKObVs-Og-35" style="edgeStyle=orthogonalEdgeStyle;rounded=0;orthogonalLoop=1;jettySize=auto;html=1;exitX=0.5;exitY=0.5;exitDx=0;exitDy=0;exitPerimeter=0;entryX=1;entryY=0.5;entryDx=0;entryDy=0;" edge="1" parent="1" source="ZMTIGG7sLfhPKObVs-Og-27" target="ZMTIGG7sLfhPKObVs-Og-20">
          <mxGeometry relative="1" as="geometry">
            <mxPoint x="710" y="640" as="targetPoint" />
            <Array as="points">
              <mxPoint x="680" y="140" />
              <mxPoint x="680" y="650" />
            </Array>
          </mxGeometry>
        </mxCell>
        <mxCell id="ZMTIGG7sLfhPKObVs-Og-36" style="edgeStyle=orthogonalEdgeStyle;rounded=0;orthogonalLoop=1;jettySize=auto;html=1;exitX=0.5;exitY=0.5;exitDx=0;exitDy=0;exitPerimeter=0;entryX=1;entryY=0.5;entryDx=0;entryDy=0;" edge="1" parent="1" source="ZMTIGG7sLfhPKObVs-Og-27" target="ZMTIGG7sLfhPKObVs-Og-22">
          <mxGeometry relative="1" as="geometry">
            <mxPoint x="680" y="710.800048828125" as="targetPoint" />
            <Array as="points">
              <mxPoint x="680" y="140" />
              <mxPoint x="680" y="760" />
            </Array>
          </mxGeometry>
        </mxCell>
        <mxCell id="ZMTIGG7sLfhPKObVs-Og-40" style="edgeStyle=orthogonalEdgeStyle;rounded=0;orthogonalLoop=1;jettySize=auto;html=1;exitX=0.5;exitY=0.5;exitDx=0;exitDy=0;exitPerimeter=0;" edge="1" parent="1" source="ZMTIGG7sLfhPKObVs-Og-27">
          <mxGeometry relative="1" as="geometry">
            <mxPoint x="680" y="200" as="targetPoint" />
          </mxGeometry>
        </mxCell>
        <mxCell id="ZMTIGG7sLfhPKObVs-Og-27" value="NGOs" style="shape=umlActor;verticalLabelPosition=bottom;verticalAlign=top;html=1;outlineConnect=0;" vertex="1" parent="1">
          <mxGeometry x="630" y="110" width="30" height="60" as="geometry" />
        </mxCell>
        <mxCell id="ZMTIGG7sLfhPKObVs-Og-31" style="edgeStyle=orthogonalEdgeStyle;rounded=0;orthogonalLoop=1;jettySize=auto;html=1;exitX=0.5;exitY=0.5;exitDx=0;exitDy=0;exitPerimeter=0;entryX=1;entryY=0.5;entryDx=0;entryDy=0;" edge="1" parent="1" source="ZMTIGG7sLfhPKObVs-Og-28" target="ZMTIGG7sLfhPKObVs-Og-4">
          <mxGeometry relative="1" as="geometry" />
        </mxCell>
        <mxCell id="ZMTIGG7sLfhPKObVs-Og-33" style="edgeStyle=orthogonalEdgeStyle;rounded=0;orthogonalLoop=1;jettySize=auto;html=1;exitX=0.5;exitY=0.5;exitDx=0;exitDy=0;exitPerimeter=0;entryX=1;entryY=0.5;entryDx=0;entryDy=0;" edge="1" parent="1" source="ZMTIGG7sLfhPKObVs-Og-28" target="ZMTIGG7sLfhPKObVs-Og-16">
          <mxGeometry relative="1" as="geometry" />
        </mxCell>
        <mxCell id="ZMTIGG7sLfhPKObVs-Og-39" style="edgeStyle=orthogonalEdgeStyle;rounded=0;orthogonalLoop=1;jettySize=auto;html=1;exitX=0.5;exitY=0.5;exitDx=0;exitDy=0;exitPerimeter=0;" edge="1" parent="1" source="ZMTIGG7sLfhPKObVs-Og-28">
          <mxGeometry relative="1" as="geometry">
            <mxPoint x="680" y="440" as="targetPoint" />
          </mxGeometry>
        </mxCell>
        <mxCell id="ZMTIGG7sLfhPKObVs-Og-28" value="Volunteer" style="shape=umlActor;verticalLabelPosition=bottom;verticalAlign=top;html=1;outlineConnect=0;" vertex="1" parent="1">
          <mxGeometry x="630" y="250" width="30" height="60" as="geometry" />
        </mxCell>
        <mxCell id="ZMTIGG7sLfhPKObVs-Og-41" value="" style="shape=flexArrow;endArrow=classic;startArrow=classic;html=1;rounded=0;" edge="1" parent="1" target="ZMTIGG7sLfhPKObVs-Og-42">
          <mxGeometry width="100" height="100" relative="1" as="geometry">
            <mxPoint x="680" y="480" as="sourcePoint" />
            <mxPoint x="790" y="480" as="targetPoint" />
          </mxGeometry>
        </mxCell>
        <mxCell id="ZMTIGG7sLfhPKObVs-Og-42" value="Client" style="rounded=0;whiteSpace=wrap;html=1;" vertex="1" parent="1">
          <mxGeometry x="810" y="450" width="120" height="60" as="geometry" />
        </mxCell>
      </root>
    </mxGraphModel>
  </diagram>
</mxfile>
